# xmcd
#
# Track frame offsets: 
#        150
#        20637
#        36350
#        53247
#        69181
#        81920
#        108506
#        123291
#        141419
#        160212
#        172772
#        180116
#        191913
#
# Disc length: 2785 seconds
#
# Revision: 0
# Processed by: cddbd v1.5.2PL0 Copyright (c) Steve Scherf et al.
# Submitted via: ExactAudioCopyFreeDBPlugin 1.0
#
DISCID=ab0adf0d
DTITLE=Franco Morone - Miles of Blues
DYEAR=2010
DGENRE=Blues
TTITLE0=Miles and Miles
TTITLE1=Blues When I Lost You
TTITLE2=Chicago
TTITLE3=Grat Dream From Heaven
TTITLE4=Crazy Basses
TTITLE5=Rainy Night in New York
TTITLE6=Summertime
TTITLE7=Slide Ride
TTITLE8=Sitting in a Limbo
TTITLE9=All that Swing
TTITLE10=Back to Nashville
TTITLE11=Slowing that Blues
TTITLE12=Mercy Mercy Mercy
EXTD=
EXTT0=
EXTT1=
EXTT2=
EXTT3=
EXTT4=
EXTT5=
EXTT6=
EXTT7=
EXTT8=
EXTT9=
EXTT10=
EXTT11=
EXTT12=
PLAYORDER=
